<?xml version="1.0" encoding="utf-8"?>
<!-- Generator: Adobe Illustrator 19.0.0, SVG Export Plug-In . SVG Version: 6.00 Build 0)  -->
<svg version="1.1" id="Layer_1" xmlns="http://www.w3.org/2000/svg" xmlns:xlink="http://www.w3.org/1999/xlink" x="0px" y="0px" viewBox="0 0 1000 1000" style="enable-background:new 0 0 1000 1000;" xml:space="preserve">
<g>
	<path d="M606.3,167c1.3,0,2.6-0.1,4-0.1c3.4,9.3-4.7,17.2-12.3,21.1c-12.4,9.4-16.5,24.9-23.3,38.1c1.7,1.1,3.4,2.2,5.1,3.2
		c1.2-2.5,2.3-5.2,4.2-7.2c12.3-9.1,27-14.1,41-20c8.9-4.1,17.4-9.1,26.6-12.6c8.8-5.1,17.1-11.3,27-14c5.9-1.8,11.7-5.1,18.1-4.3
		c-5.7,10.4-19.7,9.5-28.4,16.1c-9.8,7.8-20.9,13.7-31.1,20.9c-7.6,7.4-17,13.8-27.8,15.2c-14.6,3.2-25.5,14.2-36.5,23.5
		c-7.2,8.8-12.7,19.4-13.2,30.9c-4.4,8.1-10.9,14.9-16.8,21.9c-2.4,3.4-1.7,7.7-1.3,11.6c7.5-2.5,14.8-5.9,20.5-11.5
		c5.4-5,13.4-4.5,19.3-8.6c3.8-2.5,4.1-7.8,7.9-10.3c4.6-3.3,10.9-0.8,15.5-4.3c7.2-3.2,11.2-11.1,19-13.3
		c-4.5,14.7-20.3,21.4-32.9,28.1c-2.6,9.1-10.8,14.6-16.9,21.3c-6,6.9-16.1,6.5-23.3,11.6c-9.7,6.8-19,15.1-22.4,26.9
		c-2.9,11.2-10,20.7-12.9,31.8c1,8.5,3.4,16.8,6,25c4,3.5,8.4-0.1,12.6-1.1c3.4-0.9,7-2.1,8.9-5.3c4.3-6.3,10.8-10.7,17.7-13.8
		c1-6.7,6.6-10.9,11.4-15c3.9-4.6,9.3-7.4,14.3-10.7c6.6-3.9,7.9-12.9,15.2-15.9c1.7-8.3,10.8-11.1,13.5-18.7
		c2.8-4.6,8.7-5.8,12.5-9.2c3.3-3,1.4-9,5.7-11.1c4.6-2.8,9.5-5.4,14.9-6c7.2-0.2,14.3-3.9,19-9.3c4.9-4.3,11.3-6.3,17-9.4
		c2.7,7.4-4.8,13.4-10.2,17.2c-9,8.5-21.1,11.9-32.1,16.8c-6.3,4.7-7,14-13.9,18.2c-6.5,4.2-13.5,13.8-6.2,20.6
		c5.4-2.9,11.4-3.5,17.4-3.6c9.4-3.4,19.5-5.7,29.5-4.2c9.3,0.4,15.7-7.6,24.3-9.8c7.8-3,15.1-14.1,24.1-7.3
		c-4.8,6.9-13.1,9.8-19.5,14.8c-5,2.6-7.3,8-11.8,11.1c-12.9,6.1-27.6,5.5-41.5,5.8c-12.7,1.3-25,5.9-38,5
		c-11.3,0.7-13.4,13.9-21.9,18.9c-6,4.3-10.8,10-15.9,15.2c-3,3.1-7.8,4.1-10,8c-5.2,9-10.4,18.7-19.3,24.7
		c-6.2,5.1-11.1,11.8-18.3,15.8c-5.3,2.8-7.2,8.7-9.2,13.9c-5,9.1-12.1,19.6-6.3,30.1c6.6-1.3,13.3-1.7,19.9-0.7
		c6-0.8,8.8-7.5,14.4-9.5c8.5-4.3,15.3-11.2,24-15c3.9-1.3,4.2-5.7,5-9c2.1-11,9.2-20.3,17.6-27.5c5.6-4.6,8.4-13.4,16.4-14.5
		c-1.7,11-13.9,16.8-15.6,28c9.7-3.2,18-9.9,28.1-11.9c5.1-1.5,9-6.1,14.7-5.7c-1.9,6.5-7.9,10.5-13.9,12.7
		c-7.6,2.9-14,8.1-21.3,11.7c-5,2.4-7.7,7.9-6.7,13.3c6.7,1.1,13.8,4.7,20.5,1.6c18.1-5.2,32.8-17.6,48-28.1
		c13.2-3.3,28.9,1.2,40.7-7.3c2.2-4.9,2.9-11,7.6-14.5c12.7-9.9,22-23.6,36-32c6.6-5.4,15.6-5.4,23.5-3.5c-2.2,5-8.4,3.9-12.6,6.2
		c-12.1,5.4-14.1,20.6-22.7,29.4c-6.9,4.6-15.1,9.3-16.7,18.2c1.6,1.9,3.5,3.4,5.2,5.1c11-0.2,22.5,3.1,33-1.9
		c5.6-3.2,12.2-2,18.3-1.8c-0.4,2.2-0.3,5.4-3.2,5.7c-7.6,2.1-15.1,4.7-22.3,8c-6,3.2-10.5,9.8-17.9,10c-4.4,0.1-8.6,1.5-13,1.8
		c-8.5-0.9-16.4-5.3-25.1-4.8c-9.2-0.5-18,2.9-27,4c-5.9,0.5-8.6,6.1-12.4,9.7c-6.2,6.3-15.5,7.3-22.6,12.2
		c-8.6,6-17.9,11.2-28,13.9c-10,0.4-20,0.5-29.9-0.6c-13.3,3.8-24.7,12-35.9,19.9c-7.8,5.5-18.8-0.5-25.6,6.6
		c-3.3,2.9-6.6,5.6-10,8.5c2.7,9.8,2.5,19.8,2.3,29.8c-0.5,7.9,4.3,15.1,3.9,23c-1.7,6.7-4.2,13.1-6.3,19.6
		c-1.5,14.4-4.4,28.8-3.6,43.4c-2.5,21.3,0,42.9,3,64c-1.1,13.2,3,25.9,3,39.1c0.4,8.8,3.8,17.1,8.2,24.7c5,8.4,4.2,19,9.9,27.1
		c2.9,3.3-3.2,5.3-5.8,4.9c-11.9-4.3-24.6-5.9-37.1-8.1c-4.5-0.8-9.1-2.4-13.6-1.1c-12.3,3-24.4,6.3-36.9,8.5
		c0.3-10.1,9.3-16.6,11.4-26c1.7-6.9,10.5-9.5,10.9-17c0.9-8.9,11.3-12.1,13.5-20.3c1.6-5.1,3.6-10.1,3.8-15.5
		c0.6-7.4,3.2-14.8,1.9-22.2c-0.7-19-1.9-38.1-5.2-56.9c-1-17.5,7.3-35.4,0.5-52.5c-1.3-9.8-0.2-19.7-0.6-29.6
		c-0.5-6.8,3.5-14.6-1.2-20.7c-4.1-4.1-9.9-5.8-15-8.3c-3.9-1.9-5.6-6.3-9.2-8.6c-4-2.8-8.8-4.3-12.8-7.2
		c-12-10.2-28.8-9.9-43.6-12.6c-7.6-1.9-16.1,1.4-23.2-2.7c-3.9-2-11.1-3.1-8.3-9.1c11.3,0.9,23,4.5,34,0c2-4.7,3.8-10.4,1-15.2
		c-1.9-5.4-8.6-6.1-11.3-10.8c-4.2-6.4-5.9-14-10-20.5c-17.4-3.3-31.9-15.2-49.2-19.3c-3.8,2.2-7.8,6.7-12.6,4.4
		c-4.4-2.5-9.8-5.9-14.8-2.8c-11,6.4-24.7,6.9-36.9,4.1c3.5-4.7,11.4-6.3,17.2-4.9c4.4,1.1,8.9-0.7,11.5-4.4c-2-4.1-3.8-9-8.8-10.3
		c-6.5-1.6-9.7-8.2-16-10.1c-7.2-2.7-13.7-6.8-20.3-10.5c0.8-2,1.6-5.5,4.5-4.5c11.8,3,21,11.7,32.4,15.6
		c7.6,2.6,13.1,9.7,21.4,10.7c15,5.4,31.1,0.6,46.5,3.7c6.9-5.4,2.1-13.8-2.3-19c-4.1-4-10-5.1-14.5-8.3c-3.9-3.6-6.7-8.2-9.3-12.8
		c-2.4-4.6-8.3-5.6-10.5-10.4c-6.6-11.6-13.3-23.2-20.6-34.5c-3.8-4.8-10.8-7.6-11.4-14.5c10.2,2.5,16.5,11.3,23.6,18.3
		c6.4,6,6.9,15.5,13,21.8c5.3,8.6,13.5,14.6,21,21.1c5,2.9,12.1,3.1,14.8,9.2c7.8,9.2,10.6,20.9,14.2,32.1c2.3,0.8,4.5,1.6,6.8,2.3
		c0-10-3.1-19.7-3.6-29.7c-0.9-13.3-16.1-18.5-19-31c7.3,1,11.5,7.7,16.5,12.4c6.9,9.8,14.5,20.5,14.1,33.1
		c1.8,8.4,0.4,18.1,7.2,24.6c4.6,5.4,7.8,11.9,9.4,18.7c3.6,10.5,13.2,16.6,22.4,21.7c3.3-1.4,3.1-6,3.7-9c-0.1-6,3.3-11.7,1.9-17.7
		c-1.2-7.3-6.4-13-7.6-20.3c0.8-2.6,3.8-2.3,5-0.3c14.8,16,15.2,39.8,12.9,60.2c4.5,2.9,7.3,7.6,11.8,10.4c5.3,3.3,6.8,11.4,13.9,12
		c7.8,2.3,19.5,2.1,23-6.6c-1.1-7.4-1.2-14.9,2.2-21.8c2.2-13.8,2.7-28,0.8-41.9c-4.3-3.6-8.8-7-12.4-11.4c-3.9-4.8-10.7-4.3-16-6.4
		c-11.8-5.7-22.5-13.4-34.7-18.2c-7-3-12.4-8.8-17-14.7c-2.8-3.9-8.2-5.2-10.3-9.6c-0.8-7.7,0.2-15.8-2.9-23.2
		c-2.9-6.1-7.7-11.2-10.6-17.3c-2.9-7-1.7-16.1-7.9-21.4c-5.9-4.4-9.5-11.1-15.6-15.2c-2.4-1.3-1.1-3.5,0.6-4.7
		c9.7,4.4,17.7,11.7,26.1,18c7,4.1,10.2,12,14,18.8c2.1,7.8,1.3,16.3,4.2,23.9c2.3,5.5,3,11.4,3.9,17.2c18.3,8,33.6,24.2,54.7,24.1
		c5.8-9.8,5.7-22.3,1.8-32.7c-4.3-8.4-13-13.3-17.6-21.5c-4.6-5.7-5.3-13.2-8.4-19.5c-3.7-4-9.5-5.1-13.7-8.3
		c-2.8-3.3-3.6-7.7-4.3-11.9c-1.9-9.5-7.1-18.1-14.2-24.6c-5.7-7.6-12.2-16.1-22.1-18c-10.6-1.8-19.2-8.9-29.5-11.5
		c-8.4-2.5-17-4.7-24.5-9.5c-5.5-3.5-12.2-5.6-16.6-10.6c0.8-3.6,4.6-3,7-1.5c10.4,5.6,19.8,14.1,32.1,14.9
		c12.4,1,22.4,10.6,35,10.1c5.2,1.8,10.4,3.4,16,2.8c0-3.6-0.3-7.3,0.3-11c1.6-3.9,5.6-6.6,5.7-11.1c0.2-5.7-0.7-11.7-3.2-16.8
		c-4.3-6-12.2-8.8-15.1-16c-1.5-5.2-9.4-4.5-9.2-10.6c7.3,1.3,16.1,2.5,20.2,9.5c4.9,6.5,9.1,13.6,13.8,20.3c2.8,4,1.1,9.1,0.7,13.5
		c-0.2,8.7-1.7,17.3-0.3,26c-1.3,11,7,19.3,11.6,28.4c4,9,9.8,17,14.8,25.4c5.9,6.3,11.9-3.6,9.1-9.1c-2.1-4.1-4.3-8.5-3.1-13.3
		c5.4,3.8,11.9,7.8,13.7,14.6c-0.4,10.6-2.9,21.3-1.7,32c0.9,3.6,3.6,6.6,7.1,7.9c8.1,3.3,13.2,11.2,15.4,19.4
		c1.6,7.2,7.2,12.4,10.3,18.9c0.8,2.3,3.8,2.8,3.9-0.1c1.3-19.8-3.7-39.4-6.8-58.9c0.5-8.6-1.1-17.2-3.9-25.4
		c-6.6-9.9-14.2-19.8-15.8-31.9c-2.7-10-3.4-20.5-1-30.6c2-12.9-0.4-26.9,6.1-38.8c1,1.4,2.6,2.6,2.5,4.5c0.5,9.8-0.6,19.7,0.5,29.5
		c3.9,14.9-2.1,31,4.7,45.3c2.6,5.5,9.4,5.7,14.7,6.1c8.3-1.1,13.6-9.9,13.1-17.9c-0.2-11.2,7.4-20.3,8.9-31.2
		c1.8-9.4,5.6-18.2,8.7-27.2c1.7-4.3,1.1-10.6,6.5-12.4c-0.3,3.8-1.9,7.2-2.8,10.8c-1,6.6,0.7,13.5-1.2,20
		c-2.3,7.2-2.2,14.8-4.8,21.9c0.2,9.6-5.6,18.4-3.5,27.9c0.1,2.6-2.1,4.3-3.9,5.8c-5.3,4.1-6.9,11.1-11.1,16.1
		c-3.4,4-7.2,8.5-7,14.1c-0.6,5.9,5.8,9.2,6.1,15c1.6,5.9,2,13.7,8,16.9c3.6-1,6.6-4.1,7.1-7.9c5.8-24.3,19.8-45.3,30.4-67.6
		c1.9-4.3,5.8-7.1,9.2-10.2c0.5-7.8,3.7-15.1,7.6-21.8c2.3-6.2,4.4-12.6,7.8-18.3c3.5-9.2,5.6-18.9,10.4-27.7
		c2.8-5.1,4.8-11.7,10.6-14.3C593.3,177.2,602.2,174.9,606.3,167z"/>
</g>
</svg>
